<?xml version="1.0" encoding="utf-8"?>
<!-- Generator: Adobe Illustrator 16.0.4, SVG Export Plug-In . SVG Version: 6.00 Build 0)  -->
<!DOCTYPE svg PUBLIC "-//W3C//DTD SVG 1.1//EN" "http://www.w3.org/Graphics/SVG/1.1/DTD/svg11.dtd">
<svg version="1.1" id="Layer_1" xmlns="http://www.w3.org/2000/svg" xmlns:xlink="http://www.w3.org/1999/xlink" x="0px" y="0px"
	 width="168.859px" height="13px" viewBox="0 0 168.859 13" enable-background="new 0 0 168.859 13" xml:space="preserve">
<g>
	<path fill="#FFFFFF" d="M9.682,10.114l0.655,0.716c-1.009,1.173-2.415,1.862-4.449,1.862C2.336,12.692,0,10.114,0,6.381
		s2.526-6.319,6.208-6.319c1.819,0,3.078,0.604,4.104,1.569L9.768,2.398C9.69,2.51,9.604,2.597,9.406,2.597
		c-0.44,0-1-1.086-3.207-1.086c-2.638,0-4.492,1.871-4.492,4.871c0,3.078,1.871,4.872,4.285,4.872c1.475,0,2.285-0.346,3.156-1.121
		c0.095-0.086,0.189-0.13,0.285-0.13C9.527,10.002,9.604,10.037,9.682,10.114z"/>
	<path fill="#FFFFFF" d="M20.502,12.684c-3.63,0-6.087-2.595-6.087-6.302c0-3.698,2.457-6.319,6.087-6.319
		c3.638,0,6.095,2.621,6.095,6.319C26.597,10.089,24.14,12.684,20.502,12.684z M20.502,1.51c-2.656,0-4.38,1.836-4.38,4.871
		s1.724,4.854,4.38,4.854c2.664,0,4.379-1.819,4.379-4.854S23.166,1.51,20.502,1.51z"/>
	<path fill="#FFFFFF" d="M32.909,0.484l7.156,9.312c-0.035-0.302-0.043-0.578-0.043-0.845V0.2h1.465v12.354h-0.845
		c-0.267,0-0.422-0.086-0.595-0.302L32.9,2.95c0.026,0.285,0.035,0.569,0.035,0.802v8.803h-1.466V0.2h0.862
		C32.633,0.2,32.728,0.252,32.909,0.484z"/>
	<path fill="#FFFFFF" d="M51.712,12.555h-4.621V0.2h4.621c3.629,0,6.087,2.483,6.087,6.181
		C57.799,10.08,55.342,12.555,51.712,12.555z M51.712,1.554h-2.94V11.2h2.94c2.655,0,4.371-1.784,4.371-4.819
		S54.368,1.554,51.712,1.554z"/>
	<path fill="#FFFFFF" d="M68.042,12.684c-3.629,0-6.087-2.595-6.087-6.302c0-3.698,2.458-6.319,6.087-6.319
		c3.638,0,6.095,2.621,6.095,6.319C74.137,10.089,71.68,12.684,68.042,12.684z M68.042,1.51c-2.656,0-4.379,1.836-4.379,4.871
		s1.724,4.854,4.379,4.854c2.664,0,4.38-1.819,4.38-4.854S70.706,1.51,68.042,1.51z"/>
	<path fill="#FFFFFF" d="M80.845,7.398v5.156h-1.664V0.2h3.492c3.129,0,4.526,1.319,4.526,3.422c0,1.759-1.138,3.061-3.043,3.5
		c0.207,0.12,0.388,0.293,0.552,0.525l3.604,4.906h-1.482c-0.302,0-0.526-0.121-0.673-0.354l-3.207-4.414
		c-0.198-0.276-0.379-0.389-0.836-0.389H80.845z M80.845,6.183h1.75c1.957,0,2.975-0.991,2.975-2.44
		c0-1.474-0.975-2.224-2.897-2.224h-1.828V6.183z"/>
	<path fill="#FFFFFF" d="M97.234,0.2h1.388c0.302,0,0.5,0.164,0.569,0.396l2.552,8.587c0.095,0.311,0.164,0.672,0.232,1.061
		c0.078-0.389,0.155-0.759,0.259-1.061l2.906-8.587c0.068-0.198,0.284-0.396,0.568-0.396h0.482c0.303,0,0.492,0.164,0.569,0.396
		l2.889,8.587c0.104,0.302,0.198,0.638,0.275,1.026c0.069-0.38,0.112-0.725,0.207-1.026l2.561-8.587
		c0.061-0.207,0.276-0.396,0.561-0.396h1.302l-3.854,12.354h-1.5l-3.13-9.423c-0.061-0.181-0.121-0.388-0.173-0.621
		c-0.06,0.233-0.104,0.449-0.163,0.621l-3.147,9.423h-1.5L97.234,0.2z"/>
	<path fill="#FFFFFF" d="M128.126,12.555h-1.294c-0.302,0-0.474-0.164-0.568-0.396l-1.156-2.983h-5.543l-1.155,2.983
		c-0.078,0.206-0.284,0.396-0.569,0.396h-1.293l4.94-12.354h1.698L128.126,12.555z M120.03,7.968h4.612l-1.94-5.026
		c-0.129-0.31-0.25-0.698-0.37-1.164c-0.129,0.474-0.25,0.871-0.362,1.172L120.03,7.968z"/>
	<path fill="#FFFFFF" d="M139.549,0.2v1.405h-3.991v10.95h-1.673V1.605h-4.009V0.2H139.549z"/>
	<path fill="#FFFFFF" d="M152.008,10.114l0.655,0.716c-1.009,1.173-2.414,1.862-4.449,1.862c-3.552,0-5.888-2.578-5.888-6.311
		s2.525-6.319,6.207-6.319c1.819,0,3.078,0.604,4.104,1.569l-0.543,0.767c-0.077,0.112-0.164,0.198-0.362,0.198
		c-0.439,0-1-1.086-3.207-1.086c-2.638,0-4.491,1.871-4.491,4.871c0,3.078,1.87,4.872,4.284,4.872c1.475,0,2.285-0.346,3.155-1.121
		c0.095-0.086,0.19-0.13,0.285-0.13S151.93,10.037,152.008,10.114z"/>
	<path fill="#FFFFFF" d="M167.466,12.555h-1.681V6.933h-6.656v5.622h-1.681V0.2h1.681v5.509h6.656V0.2h1.681V12.555z"/>
</g>
</svg>
